<svg id="visual" viewBox="0 0 900 600" width="900" height="600" xmlns="http://www.w3.org/2000/svg" xmlns:xlink="http://www.w3.org/1999/xlink" version="1.1"><rect x="0" y="0" width="900" height="600" fill="#002233"></rect><path d="M0 374L21.5 393.5C43 413 86 452 128.8 460.8C171.7 469.7 214.3 448.3 257.2 452.8C300 457.3 343 487.7 385.8 493.8C428.7 500 471.3 482 514.2 459.7C557 437.3 600 410.7 642.8 400C685.7 389.3 728.3 394.7 771.2 398.8C814 403 857 406 878.5 407.5L900 409L900 601L878.5 601C857 601 814 601 771.2 601C728.3 601 685.7 601 642.8 601C600 601 557 601 514.2 601C471.3 601 428.7 601 385.8 601C343 601 300 601 257.2 601C214.3 601 171.7 601 128.8 601C86 601 43 601 21.5 601L0 601Z" fill="#0066FF" stroke-linecap="round" stroke-linejoin="miter"></path></svg>